<svg viewBox="0 0 56 60" fill="none" xmlns="http://www.w3.org/2000/svg">
<g filter="url(#filter0_di_72_2392)">
<path d="M50.81 18.2219V18.2233V37.7767C50.81 41.9239 49.5757 45.1738 47.3631 47.3864C45.1505 49.5991 41.9006 50.8333 37.7533 50.8333H18.2233C14.0761 50.8333 10.8263 49.5991 8.61376 47.3837C6.40113 45.1683 5.16666 41.9126 5.16666 37.7533V18.2233C5.16666 14.0761 6.40092 10.8262 8.61354 8.61354C10.8262 6.40092 14.0761 5.16666 18.2233 5.16666H37.7767C41.924 5.16666 45.1737 6.40096 47.3833 8.61332C49.5928 10.8256 50.8214 14.075 50.81 18.2219ZM35.2769 30.5018L35.2785 30.4996L40.6673 23.5478C40.6676 23.5475 40.6679 23.5471 40.6681 23.5468C41.4287 22.5721 41.2294 21.1701 40.2633 20.3797L40.262 20.3786C39.2939 19.5921 37.8524 19.775 37.0998 20.7658C37.0992 20.7666 37.0987 20.7673 37.0981 20.7681L31.7115 27.717L31.7114 27.717L31.7067 27.7233C31.6938 27.7405 31.6835 27.7504 31.6771 27.7557C31.6767 27.756 31.6763 27.7563 31.676 27.7567H31.6605L31.6119 27.7664C31.6075 27.7673 31.6042 27.7677 31.6019 27.768C31.5998 27.7665 31.5965 27.7641 31.592 27.7604L31.5841 27.7535L31.5758 27.7471L27.3059 24.3871L27.3051 24.3865C26.338 23.6284 25.1078 23.2869 23.9 23.444C22.6686 23.6012 21.5949 24.2315 20.8398 25.1949L20.8372 25.1982L15.2839 32.4082L15.2839 32.4082L15.2814 32.4114C14.5358 33.3956 14.7095 34.8049 15.7012 35.5592C16.1187 35.886 16.6005 36.0367 17.08 36.0367C17.7445 36.0367 18.4031 35.7347 18.8491 35.1698L18.8491 35.1698L18.8528 35.1651L24.4061 27.9551L24.4061 27.9551L24.41 27.95C24.4228 27.9329 24.4332 27.9229 24.4395 27.9176C24.4399 27.9173 24.4403 27.917 24.4407 27.9167H24.4682L24.5123 27.9056C24.5125 27.9057 24.5128 27.9058 24.5131 27.9059C24.514 27.9061 24.5148 27.9065 24.5157 27.9068C24.5169 27.9074 24.5199 27.9089 24.5246 27.913L24.5326 27.9198L24.5408 27.9263L28.8108 31.2863L28.8115 31.2868C29.7773 32.0438 30.9821 32.3855 32.2115 32.23C33.4487 32.0969 34.5232 31.4633 35.2769 30.5018Z" fill="white" stroke="white"/>
</g>
<defs>
<filter id="filter0_di_72_2392" x="-4" y="0" width="64" height="64" filterUnits="userSpaceOnUse" color-interpolation-filters="sRGB">
<feFlood flood-opacity="0" result="BackgroundImageFix"/>
<feColorMatrix in="SourceAlpha" type="matrix" values="0 0 0 0 0 0 0 0 0 0 0 0 0 0 0 0 0 0 127 0" result="hardAlpha"/>
<feOffset dy="4"/>
<feGaussianBlur stdDeviation="2"/>
<feComposite in2="hardAlpha" operator="out"/>
<feColorMatrix type="matrix" values="0 0 0 0 0 0 0 0 0 0 0 0 0 0 0 0 0 0 0.12 0"/>
<feBlend mode="normal" in2="BackgroundImageFix" result="effect1_dropShadow_72_2392"/>
<feBlend mode="normal" in="SourceGraphic" in2="effect1_dropShadow_72_2392" result="shape"/>
<feColorMatrix in="SourceAlpha" type="matrix" values="0 0 0 0 0 0 0 0 0 0 0 0 0 0 0 0 0 0 127 0" result="hardAlpha"/>
<feOffset dy="4"/>
<feGaussianBlur stdDeviation="2"/>
<feComposite in2="hardAlpha" operator="arithmetic" k2="-1" k3="1"/>
<feColorMatrix type="matrix" values="0 0 0 0 0 0 0 0 0 0 0 0 0 0 0 0 0 0 0.25 0"/>
<feBlend mode="normal" in2="shape" result="effect2_innerShadow_72_2392"/>
</filter>
</defs>
</svg>
