<svg viewBox="0 0 57 60" fill="none" xmlns="http://www.w3.org/2000/svg">
<g filter="url(#filter0_di_72_2449)">
<path d="M13.4533 44.9743V44.9079L13.2927 44.7595C8.76931 40.5788 5.91666 34.6195 5.91666 28C5.91666 15.4195 16.1695 5.16666 28.75 5.16666C41.3305 5.16666 51.5833 15.4195 51.5833 28C51.5833 34.6194 48.7308 40.5782 44.1849 44.7586L43.8011 45.1115L43.8248 45.1353C43.7195 45.223 43.611 45.3119 43.5004 45.4024C43.3824 45.4841 43.2613 45.5904 43.17 45.6707C43.1366 45.7001 43.1071 45.726 43.0832 45.7459C42.6782 46.0834 42.2474 46.4012 41.7866 46.7237L41.7827 46.7265C41.7117 46.7772 41.6549 46.8197 41.6054 46.8567C41.5133 46.9256 41.4462 46.9758 41.3586 47.0259L41.3462 47.033L41.3342 47.0408C41.0327 47.2367 40.7398 47.4075 40.4354 47.585C40.2789 47.6763 40.1193 47.7694 39.9538 47.8686C39.8835 47.909 39.8111 47.9543 39.7476 47.994C39.7293 48.0055 39.7117 48.0165 39.6951 48.0268C39.6137 48.0774 39.5419 48.12 39.4697 48.1561L39.4697 48.156L39.4613 48.1604C38.9824 48.4113 38.504 48.639 38.0264 48.8438L38.0129 48.8495L37.9997 48.8561C37.8083 48.9518 37.6455 49.0327 37.4878 49.0918L37.477 49.0959L37.4664 49.1004C37.1559 49.2335 36.8394 49.342 36.5037 49.4571C36.3333 49.5156 36.1579 49.5757 35.9759 49.6416C35.7706 49.6949 35.571 49.7698 35.3993 49.8342L35.3934 49.8364C35.0255 49.9639 34.6429 50.0544 34.2351 50.1509C34.0897 50.1853 33.941 50.2204 33.7887 50.2583C33.6686 50.2758 33.562 50.3051 33.4849 50.3263C33.3897 50.3526 33.3425 50.3655 33.2993 50.3717L33.2821 50.3741L33.2652 50.3778C32.6342 50.513 31.9995 50.6039 31.3352 50.6727L31.2999 50.6763L31.2654 50.6849C31.1603 50.7112 31.1277 50.7167 31.1067 50.7167H31.084L31.0614 50.7187C30.3018 50.7878 29.5242 50.8333 28.75 50.8333C27.9888 50.8333 27.2239 50.7893 26.4532 50.722C26.3727 50.7021 26.2513 50.6743 26.1202 50.6704C25.4636 50.602 24.8357 50.5115 24.2114 50.3778L24.1902 50.3732L24.1687 50.3705C24.0256 50.3526 23.8974 50.3169 23.7307 50.2692L23.7227 50.2669L23.7146 50.2649C23.1531 50.1246 22.6025 49.9868 22.0533 49.8267L22.044 49.8239L22.0346 49.8216C21.8804 49.783 21.7207 49.7238 21.5289 49.6518L21.517 49.6474L21.5049 49.6435C21.0047 49.4844 20.504 49.3023 20.0026 49.0972L19.9958 49.0944L19.9889 49.0918C19.8312 49.0327 19.6683 48.9518 19.4769 48.8561L19.4601 48.8477L19.4426 48.8406C18.9476 48.638 18.4761 48.4135 18.0279 48.1672C17.9527 48.1242 17.8711 48.0752 17.7839 48.0229C17.6974 47.971 17.6052 47.9157 17.5181 47.8659L17.5101 47.8613L17.502 47.8571C17.0303 47.61 16.5819 47.341 16.1564 47.0501C16.0732 46.9907 15.996 46.9373 15.922 46.8861L15.9213 46.8856C15.8461 46.8335 15.7741 46.7836 15.6969 46.7286C15.5912 46.6507 15.486 46.5741 15.3819 46.4983C15.0372 46.2473 14.7036 46.0044 14.3934 45.7459L14.3729 45.7288L14.3507 45.714C14.2821 45.6683 14.2349 45.6264 14.1657 45.5651C14.1234 45.5276 14.0727 45.4827 14.0039 45.4252C13.8952 45.3279 13.7775 45.2348 13.6728 45.1519C13.6529 45.1362 13.6334 45.1208 13.6146 45.1058C13.5573 45.0602 13.5037 45.0169 13.4533 44.9743ZM39.9979 40.0118L40.0015 40.0141C40.9861 40.6631 41.8086 41.4203 42.4498 42.2384L42.8002 42.6855L43.1992 42.2812C46.8337 38.5989 49.0833 33.5511 49.0833 28C49.0833 16.7805 39.9695 7.66666 28.75 7.66666C17.5305 7.66666 8.41666 16.7805 8.41666 28C8.41666 33.5511 10.6663 38.5989 14.3008 42.2812L14.6932 42.6788L15.045 42.2449C15.7156 41.4179 16.5181 40.6603 17.4985 40.0141L17.5007 40.0127C20.5869 37.9552 24.6674 36.9117 28.7675 36.9117C32.8677 36.9117 36.9358 37.9553 39.9979 40.0118Z" fill="white" stroke="white"/>
<path d="M20.5 24.92C20.5 20.3661 24.1961 16.67 28.75 16.67C33.3034 16.67 36.9993 20.3654 37 24.9187C36.9774 29.3846 33.484 32.9884 29.0445 33.1467H29.0445H29.0444H29.0443H29.0442H29.0441H29.044H29.044H29.0439H29.0438H29.0437H29.0436H29.0435H29.0434H29.0433H29.0433H29.0432H29.0431H29.043H29.0429H29.0428H29.0427H29.0426H29.0425H29.0424H29.0424H29.0423H29.0422H29.0421H29.042H29.0419H29.0418H29.0417H29.0416H29.0415H29.0414H29.0413H29.0412H29.0411H29.041H29.0409H29.0408H29.0407H29.0406H29.0406H29.0405H29.0404H29.0403H29.0402H29.0401H29.04H29.0399H29.0398H29.0397H29.0396H29.0395H29.0394H29.0393H29.0392H29.0391H29.039H29.0389H29.0387H29.0386H29.0385H29.0384H29.0383H29.0382H29.0381H29.038H29.0379H29.0378H29.0377H29.0376H29.0375H29.0374H29.0373H29.0372H29.0371H29.037H29.0369H29.0368H29.0366H29.0365H29.0364H29.0363H29.0362H29.0361H29.036H29.0359H29.0358H29.0357H29.0356H29.0354H29.0353H29.0352H29.0351H29.035H29.0349H29.0348H29.0347H29.0346H29.0344H29.0343H29.0342H29.0341H29.034H29.0339H29.0338H29.0337H29.0335H29.0334H29.0333H29.0332H29.0331H29.033H29.0329H29.0327H29.0326H29.0325H29.0324H29.0323H29.0322H29.032H29.0319H29.0318H29.0317H29.0316H29.0315H29.0313H29.0312H29.0311H29.031H29.0309H29.0307H29.0306H29.0305H29.0304H29.0303H29.0301H29.03H29.0299H29.0298H29.0297H29.0295H29.0294H29.0293H29.0292H29.0291H29.0289H29.0288H29.0287H29.0286H29.0284H29.0283H29.0282H29.0281H29.028H29.0278H29.0277H29.0276H29.0275H29.0273H29.0272H29.0271H29.027H29.0268H29.0267H29.0266H29.0265H29.0263H29.0262H29.0261H29.026H29.0258H29.0257H29.0256H29.0255H29.0253H29.0252H29.0251H29.0249H29.0248H29.0247H29.0246H29.0244H29.0243H29.0242H29.0241H29.0239H29.0238H29.0237H29.0235H29.0234H29.0233H29.0232H29.023H29.0229H29.0228H29.0226H29.0225H29.0224H29.0223H29.0221H29.022H29.0219H29.0217H29.0216H29.0215H29.0213H29.0212H29.0211H29.021H29.0208H29.0207H29.0206H29.0204H29.0203H29.0202H29.02H29.0199H29.0198H29.0196H29.0195H29.0194H29.0192H29.0191H29.019H29.0188H29.0187H29.0186H29.0184H29.0183H29.0182H29.018H29.0179H29.0178H29.0176H29.0175H29.0174H29.0172H29.0171H29.017H29.0168H29.0167H29.0166H29.0164H29.0163H29.0162H29.016H29.0159H29.0158H29.0156H29.0155H29.0154H29.0152H29.0151H29.015H29.0148H29.0147H29.0146H29.0144H29.0143H29.0142H29.014H29.0139H29.0138H29.0136H29.0135H29.0133H29.0132H29.0131H29.0129H29.0128H29.0127H29.0125H29.0124H29.0123H29.0121H29.012H29.0119H29.0117H29.0116H29.0114H29.0113H29.0112H29.011H29.0109H29.0108H29.0106H29.0105H29.0104H29.0102H29.0101H29.0099H29.0098H29.0097H29.0095H29.0094H29.0093H29.0091H29.009H29.0089H29.0087H29.0086H29.0084H29.0083H29.0082H29.008H29.0079H29.0078H29.0076H29.0075H29.0073H29.0072H29.0071H29.0069H29.0068H29.0067H29.0064H29.0061H29.0058H29.0056H29.0053H29.005H29.0047H29.0045H29.0042H29.0039H29.0036H29.0033H29.0031H29.0028H29.0025H29.0022H29.0019H29.0017H29.0014H29.0011H29.0008H29.0005H29.0002H29H28.9997H28.9994H28.9991H28.9988H28.9985H28.9982H28.9979H28.9977H28.9974H28.9971H28.9968H28.9965H28.9962H28.9959H28.9956H28.9953H28.995H28.9947H28.9944H28.9941H28.9939H28.9936H28.9933H28.993H28.9927H28.9924H28.9921H28.9918H28.9915H28.9912H28.9909H28.9906H28.9903H28.99H28.9897H28.9894H28.9891H28.9888H28.9885H28.9882H28.9879H28.9876H28.9873H28.9869H28.9866H28.9863H28.986H28.9857H28.9854H28.9851H28.9848H28.9845H28.9842H28.9839H28.9836H28.9833H28.983H28.9826H28.9823H28.982H28.9817H28.9814H28.9811H28.9808H28.9805H28.9801H28.9798H28.9795H28.9792H28.9789H28.9786H28.9783H28.9779H28.9776H28.9773H28.977H28.9767H28.9764H28.976H28.9757H28.9754H28.9751H28.9748H28.9745H28.9741H28.9738H28.9735H28.9732H28.9729H28.9725H28.9722H28.9719H28.9716H28.9713H28.9709H28.9706H28.9703H28.97H28.9696H28.9693H28.969H28.9687H28.9683H28.968H28.9677H28.9674H28.967H28.9667H28.9664H28.9661H28.9657H28.9654H28.9651H28.9648H28.9644H28.9641H28.9638H28.9634H28.9631H28.9628H28.9625H28.9621H28.9618H28.9615H28.9611H28.9608H28.9605H28.9602H28.9598H28.9595H28.9592H28.9588H28.9585H28.9582H28.9578H28.9575H28.9572H28.9568H28.9565H28.9562H28.9558H28.9555H28.9552H28.9548H28.9545H28.9542H28.9538H28.9535H28.9532H28.9528H28.9525H28.9522H28.9518H28.9515H28.9512H28.9508H28.9505H28.9502H28.9498H28.9495H28.9491H28.9488H28.9485H28.9481H28.9478H28.9475H28.9471H28.9468H28.9464H28.9461H28.9458H28.9454H28.9451H28.9448H28.9444H28.9441H28.9437H28.9434H28.9431H28.9427H28.9424H28.942H28.9417H28.9414H28.941H28.9407H28.9403H28.94H28.9397H28.9393H28.939H28.9386H28.9383H28.938H28.9376H28.9373H28.9369H28.9366H28.9363H28.9359H28.9356H28.9352H28.9349H28.9346H28.9342H28.9339H28.9335H28.9332H28.9329H28.9325H28.9322H28.9318H28.9315H28.9311H28.9308H28.9305H28.9301H28.9298H28.9294H28.9291H28.9288H28.9284H28.9281H28.9277H28.9274H28.927H28.9267H28.9264H28.926H28.9257H28.9253H28.925H28.9247H28.9243H28.924H28.9236H28.9233H28.9229H28.9226H28.9223H28.9219H28.9216H28.9212H28.9209H28.9206H28.9202H28.9199H28.9195H28.9192H28.9188H28.9185H28.9182H28.9178H28.9175H28.9171H28.9168H28.9165H28.9161H28.9158H28.9154H28.9151H28.9148H28.9144H28.9141H28.9137H28.9134H28.9131H28.9127H28.9124H28.912H28.9117H28.9113H28.911H28.9107H28.9103H28.91H28.9096H28.9093H28.909H28.9086H28.9083H28.908H28.9076H28.9073H28.9069H28.9066H28.9063H28.9059H28.9056H28.9052H28.9049H28.9046H28.9042H28.9039H28.9036H28.9032H28.9029H28.9025H28.9022H28.9019H28.9015H28.9012H28.9009H28.9005H28.9002H28.8998H28.8995H28.8992H28.8988H28.8985H28.8982H28.8978H28.8975H28.8972H28.8968H28.8965H28.8962H28.8958H28.8955H28.8952H28.8948H28.8945H28.8942H28.8938H28.8935H28.8932H28.8928H28.8925H28.8922H28.8918H28.8915H28.8912H28.8908H28.8905H28.8902H28.8898H28.8895H28.8892H28.8889H28.8885H28.8882H28.8879H28.8875H28.8872H28.8869H28.8865H28.8862H28.8859H28.8856H28.8852H28.8849H28.8846H28.8843H28.8839H28.8836H28.8833H28.883H28.8826H28.8823H28.882H28.8817H28.8813H28.881H28.8807H28.8804H28.88H28.8797H28.8794H28.8791H28.8787H28.8784H28.8781H28.8778H28.8775H28.8771H28.8768H28.8765H28.8762H28.8759H28.8755H28.8752H28.8749H28.8746H28.8743H28.874H28.8736H28.8733H28.873H28.8727H28.8724H28.8721H28.8717H28.8714H28.8711H28.8708H28.8705H28.8702H28.8699H28.8695H28.8692H28.8689H28.8686H28.8683H28.868H28.8677H28.8674H28.867H28.8667H28.8664H28.8661H28.8658H28.8655H28.8652H28.8649H28.8646H28.8643H28.864H28.8637H28.8634H28.8631H28.8627H28.8624H28.8621H28.8618H28.8615H28.8612H28.8609H28.8606H28.8603H28.86H28.8597H28.8594H28.8591H28.8588H28.8585H28.8582H28.8579H28.8576H28.8573H28.857H28.8567H28.8564H28.8561H28.8559H28.8556H28.8553H28.855H28.8547H28.8544H28.8541H28.8538H28.8535H28.8532H28.8529H28.8526H28.8523H28.8521H28.8518H28.8515H28.8512H28.8509H28.8506H28.8503H28.85H28.8498H28.8495H28.8492H28.8489H28.8486H28.8483H28.8481H28.8478H28.8475H28.8472H28.8469H28.8467H28.8464H28.8461H28.8458H28.8455H28.8453H28.845H28.8447H28.8444H28.8442H28.8439H28.8436H28.8433H28.8431H28.8428H28.8425H28.8422H28.842H28.8417H28.8414H28.8411H28.8408H28.8405H28.8403H28.84H28.8397H28.8394H28.8391H28.8388H28.8385H28.8382H28.8379H28.8377H28.8374H28.8371H28.8368H28.8365H28.8362H28.8359H28.8356H28.8353H28.835H28.8347H28.8344H28.8341H28.8337H28.8334H28.8331H28.8328H28.8325H28.8322H28.8319H28.8316H28.8313H28.8309H28.8306H28.8303H28.83H28.8297H28.8294H28.829H28.8287H28.8284H28.8281H28.8277H28.8274H28.8271H28.8268H28.8264H28.8261H28.8258H28.8254H28.8251H28.8248H28.8245H28.8241H28.8238H28.8234H28.8231H28.8228H28.8224H28.8221H28.8218H28.8214H28.8211H28.8207H28.8204H28.82H28.8197H28.8194H28.819H28.8187H28.8183H28.818H28.8176H28.8173H28.8169H28.8166H28.8162H28.8158H28.8155H28.8151H28.8148H28.8144H28.8141H28.8137H28.8133H28.813H28.8126H28.8123H28.8119H28.8115H28.8112H28.8108H28.8104H28.8101H28.8097H28.8093H28.809H28.8086H28.8082H28.8079H28.8075H28.8071H28.8067H28.8064H28.806H28.8056H28.8052H28.8049H28.8045H28.8041H28.8037H28.8034H28.803H28.8026H28.8022H28.8018H28.8014H28.8011H28.8007H28.8003H28.7999H28.7995H28.7991H28.7987H28.7984H28.798H28.7976H28.7972H28.7968H28.7964H28.796H28.7956H28.7952H28.7948H28.7944H28.794H28.7937H28.7933H28.7929H28.7925H28.7921H28.7917H28.7913H28.7909H28.7905H28.7901H28.7897H28.7893H28.7889H28.7885H28.788H28.7876H28.7872H28.7868H28.7864H28.786H28.7856H28.7852H28.7848H28.7844H28.784H28.7836H28.7832H28.7827H28.7823H28.7819H28.7815H28.7811H28.7807H28.7803H28.7799H28.7794H28.779H28.7786H28.7782H28.7778H28.7774H28.7769H28.7765H28.7761H28.7757H28.7753H28.7748H28.7744H28.774H28.7736H28.7731H28.7727H28.7723H28.7719H28.7715H28.771H28.7706H28.7702H28.7698H28.7693H28.7689H28.7685H28.768H28.7676H28.7672H28.7668H28.7663H28.7659H28.7655H28.765H28.7646H28.7642H28.7637H28.7633H28.7629H28.7624H28.762H28.7616H28.7611H28.7607H28.7603H28.7598H28.7594H28.759H28.7585H28.7581H28.7577H28.7572H28.7568H28.7564H28.7559H28.7555H28.755H28.7546H28.7542H28.7537H28.7533H28.7528H28.7524H28.752H28.7515H28.7511H28.7506H28.7502H28.7497H28.7493H28.7489H28.7484H28.748H28.7475H28.7471H28.7466H28.7462H28.7457H28.7453H28.7449H28.7444H28.744H28.7435H28.7431H28.7426H28.7422H28.7417H28.7413H28.7408H28.7404H28.7399H28.7395H28.739H28.7386H28.7381H28.7377H28.7372H28.7368H28.7363H28.7359H28.7354H28.735H28.7345H28.7341H28.7336H28.7332H28.7327H28.7323H28.7318H28.7314H28.7309H28.7305H28.73H28.7296H28.7291H28.7287H28.7282H28.7278H28.7273H28.7269H28.7264H28.726H28.7255H28.7251H28.7246H28.7241H28.7237H28.7232H28.7228H28.7223H28.7219H28.7214H28.721H28.7205H28.7201H28.7196H28.7191H28.7187H28.7182H28.7178H28.7173H28.7169H28.7164H28.716H28.7155H28.715H28.7146H28.7141H28.7137H28.7132H28.7128H28.7123H28.7119H28.7114H28.7109H28.7105H28.71H28.7096H28.7091H28.7087H28.7082H28.7078H28.7073H28.7068H28.7064H28.7059H28.7055H28.705H28.7046H28.7041H28.7037H28.7032H28.7027H28.7023H28.7018H28.7014H28.7009H28.7005H28.7H28.6996H28.6991H28.6986H28.6982H28.6977H28.6973H28.6968H28.6964H28.6959H28.6955H28.695H28.6946H28.6941H28.6936H28.6932H28.6927H28.6923H28.6918H28.6914H28.6909H28.6905H28.69H28.6896H28.6891H28.6887H28.6882H28.6878H28.6873H28.6869H28.6864H28.6859H28.6855H28.685H28.6846H28.6841H28.6837H28.6832H28.6828H28.6823H28.6819H28.6814H28.681H28.6805H28.6801H28.6796H28.6792H28.6787H28.6783H28.6778H28.6774H28.6769H28.6765H28.676H28.6756H28.6752H28.6747H28.6743H28.6738H28.6734H28.6729H28.6725H28.672H28.6716H28.6711H28.6707H28.6702H28.6698H28.6694H28.6689H28.6685H28.668H28.6676H28.6671H28.6667H28.6663H28.6658H28.6654H28.6649H28.6645H28.6641H28.6636H28.6632H28.6627H28.6623H28.6619H28.6614H28.661H28.6605H28.6601H28.6597H28.6592H28.6588H28.6584H28.6579H28.6575H28.657H28.6566H28.6562H28.6557H28.6553H28.6549H28.6544H28.654H28.6536H28.6531H28.6527H28.6523H28.6519H28.6514H28.651H28.6506H28.6501H28.6497H28.6493H28.6488H28.6484H28.648H28.6476H28.6471H28.6467H28.6463H28.6459H28.6454H28.645H28.6446H28.6442H28.6437H28.6433H28.6429H28.6425H28.6421H28.6416H28.6412H28.6408H28.6405C23.9867 33.0108 20.5 29.3793 20.5 24.92Z" fill="white" stroke="white"/>
</g>
<defs>
<filter id="filter0_di_72_2449" x="-3.25" y="0" width="64" height="64" filterUnits="userSpaceOnUse" color-interpolation-filters="sRGB">
<feFlood flood-opacity="0" result="BackgroundImageFix"/>
<feColorMatrix in="SourceAlpha" type="matrix" values="0 0 0 0 0 0 0 0 0 0 0 0 0 0 0 0 0 0 127 0" result="hardAlpha"/>
<feOffset dy="4"/>
<feGaussianBlur stdDeviation="2"/>
<feComposite in2="hardAlpha" operator="out"/>
<feColorMatrix type="matrix" values="0 0 0 0 0 0 0 0 0 0 0 0 0 0 0 0 0 0 0.12 0"/>
<feBlend mode="normal" in2="BackgroundImageFix" result="effect1_dropShadow_72_2449"/>
<feBlend mode="normal" in="SourceGraphic" in2="effect1_dropShadow_72_2449" result="shape"/>
<feColorMatrix in="SourceAlpha" type="matrix" values="0 0 0 0 0 0 0 0 0 0 0 0 0 0 0 0 0 0 127 0" result="hardAlpha"/>
<feOffset dy="4"/>
<feGaussianBlur stdDeviation="2"/>
<feComposite in2="hardAlpha" operator="arithmetic" k2="-1" k3="1"/>
<feColorMatrix type="matrix" values="0 0 0 0 0 0 0 0 0 0 0 0 0 0 0 0 0 0 0.25 0"/>
<feBlend mode="normal" in2="shape" result="effect2_innerShadow_72_2449"/>
</filter>
</defs>
</svg>
