<svg viewBox="0 0 56 60" fill="none" xmlns="http://www.w3.org/2000/svg">
<g filter="url(#filter0_di_72_2405)">
<path d="M44.6984 34.068L44.6997 34.0702C45.53 35.4327 45.6776 37.0451 45.1255 38.5104C44.5704 39.9833 43.4223 41.107 41.9373 41.595L41.9345 41.5959C37.4609 43.0948 32.7547 43.8333 28.0467 43.8333C23.3387 43.8333 18.6333 43.0948 14.161 41.5733L14.16 41.573C12.5563 41.0312 11.3552 39.9172 10.854 38.518L10.8541 38.518L10.8526 38.5141C10.3273 37.0851 10.5076 35.5159 11.372 34.0674C11.3722 34.067 11.3724 34.0667 11.3726 34.0663L13.7278 30.1721L13.7279 30.1721L13.7319 30.1653C14.0076 29.6927 14.2549 29.0281 14.4329 28.3733C14.6108 27.7188 14.7333 27.0236 14.7333 26.4833V20.58C14.7333 15.3657 17.7674 10.844 22.156 8.66099L22.2943 8.59219L22.3697 8.45734C23.496 6.44316 25.617 5.16666 27.9767 5.16666C30.364 5.16666 32.4372 6.40039 33.5614 8.38935L33.639 8.52662L33.7813 8.59454C38.2582 10.7318 41.36 15.2975 41.36 20.58V26.4833C41.36 27.0236 41.4825 27.7187 41.6603 28.3756C41.8384 29.0337 42.0851 29.7017 42.3585 30.1835L42.3583 30.1835L42.365 30.1947L44.6984 34.068Z" fill="white" stroke="white"/>
<path d="M23.3953 48.8919C22.9136 48.4402 22.5122 47.8761 22.2112 47.2684C22.2349 47.2716 22.2587 47.2749 22.2826 47.2783L22.2826 47.2783L22.2887 47.2791C22.8257 47.3492 23.3953 47.4205 23.9674 47.4682C25.3089 47.5858 26.6767 47.6567 28.0467 47.6567C29.394 47.6567 30.7391 47.5858 32.0578 47.468L32.0578 47.468L32.0608 47.4677C32.2032 47.4542 32.3532 47.4422 32.5069 47.4299C32.8434 47.403 33.1975 47.3746 33.528 47.3254C33.6172 47.3142 33.7063 47.3031 33.7956 47.292C32.709 49.3956 30.5177 50.8333 28 50.8333C26.2878 50.8333 24.5991 50.1385 23.4132 48.9095L23.4045 48.9005L23.3953 48.8919Z" fill="white" stroke="white"/>
</g>
<defs>
<filter id="filter0_di_72_2405" x="-4" y="0" width="64" height="64" filterUnits="userSpaceOnUse" color-interpolation-filters="sRGB">
<feFlood flood-opacity="0" result="BackgroundImageFix"/>
<feColorMatrix in="SourceAlpha" type="matrix" values="0 0 0 0 0 0 0 0 0 0 0 0 0 0 0 0 0 0 127 0" result="hardAlpha"/>
<feOffset dy="4"/>
<feGaussianBlur stdDeviation="2"/>
<feComposite in2="hardAlpha" operator="out"/>
<feColorMatrix type="matrix" values="0 0 0 0 0 0 0 0 0 0 0 0 0 0 0 0 0 0 0.12 0"/>
<feBlend mode="normal" in2="BackgroundImageFix" result="effect1_dropShadow_72_2405"/>
<feBlend mode="normal" in="SourceGraphic" in2="effect1_dropShadow_72_2405" result="shape"/>
<feColorMatrix in="SourceAlpha" type="matrix" values="0 0 0 0 0 0 0 0 0 0 0 0 0 0 0 0 0 0 127 0" result="hardAlpha"/>
<feOffset dy="4"/>
<feGaussianBlur stdDeviation="2"/>
<feComposite in2="hardAlpha" operator="arithmetic" k2="-1" k3="1"/>
<feColorMatrix type="matrix" values="0 0 0 0 0 0 0 0 0 0 0 0 0 0 0 0 0 0 0.25 0"/>
<feBlend mode="normal" in2="shape" result="effect2_innerShadow_72_2405"/>
</filter>
</defs>
</svg>
